<?xml version="1.0" encoding="utf-8"?>
<!-- Generator: Adobe Illustrator 25.1.0, SVG Export Plug-In . SVG Version: 6.00 Build 0)  -->
<svg version="1.1" id="Capa_1" xmlns="http://www.w3.org/2000/svg" xmlns:xlink="http://www.w3.org/1999/xlink" x="0px" y="0px"
	 viewBox="0 0 168 153" style="enable-background:new 0 0 168 153;" xml:space="preserve">
<style type="text/css">
	.st0{fill:#FF8870;}
	.st1{fill:#FF6C52;}
	.st2{fill:#F0F0F0;}
	.st3{fill:#E4E4E4;}
	.st4{fill:#595959;}
</style>
<g>
	<g>
		<path class="st0" d="M124.8,93c5.7,2.5,11.7,4.3,17.9,5.3c2.1,0.3,4.1,1,6.2,1.8c4,1.7,5.9,6.3,4.2,10.3
			c-2.1,4.9-7.9,7.8-14.6,9.5c-8.4,2.1-17.1,1.4-24.6-1.9L124.8,93z"/>
	</g>
	<g>
		<path class="st1" d="M153.2,104.6c-0.8-1.9-2.3-3.6-4.3-4.5c-2-0.8-4.1-1.5-6.2-1.8c-6.2-1-12.2-2.8-17.9-5.3L113.9,118
			c5,2.1,10.4,3.2,16,3c1.5-3.2,2.9-6.4,4-9.7c1.4-4.1,5.3-6.9,9.6-6.7C147.4,104.8,150.7,104.7,153.2,104.6L153.2,104.6z"/>
	</g>
	<g>
		<path class="st0" d="M88.4,73.2c-5.3-3.3-10.1-7.2-14.5-11.7c-1.5-1.5-3.1-2.9-5-4.1c-3.7-2.3-8.5-1.4-10.8,2.3
			c-2.8,4.5-1.9,11,0.4,17.4c3,8.2,8.5,14.9,15.4,19.3L88.4,73.2z"/>
	</g>
	<g>
		<path class="st1" d="M73.9,61.5c-1.5-1.5-3.1-2.9-5-4.1c-1.9-1.2-4.1-1.5-6.1-1c1.2,2.3,3.4,5.9,6.5,10.3
			c2.8,3.9,2.5,9.2-0.9,12.5l-0.1,0.1L62.5,85c3,4.6,6.9,8.4,11.4,11.3l14.4-23.2C83.1,69.9,78.2,66,73.9,61.5z"/>
	</g>
	<g>
		<path class="st2" d="M76.5,42.9C88.7,55.1,88.4,75,76.2,87.2L70,93.4c0,0,11.9,25.5,48,26c14.6-25.5,11-58.6-10.8-80.3
			c-20-20-50.2-23.5-73.9-10.7l5.2,9.7C50.4,31,66.2,32.6,76.5,42.9L76.5,42.9z"/>
	</g>
	<g>
		<path class="st3" d="M73.3,35.5C73.3,29.7,78,25,83.8,25c0.6,0,1.3,0.1,1.9,0.2c-17-6.6-36.2-5.5-52.4,3.3l5.2,9.7
			c11.5-6.9,26.6-5.7,37,3.7C74.1,40.1,73.3,37.9,73.3,35.5z"/>
	</g>
	<g>
		<path class="st0" d="M18.6,9.5c-3.4,1.2-5.1,4.8-3.9,8.2c0.6,1.8,1.5,3.5,2.5,5c5.7,8.7,9.2,18.7,10.1,29.1
			c0.2,1.8,0.5,3.6,1.2,5.4c1.2,3.4,4.8,5.1,8.2,3.9c4.2-1.5,7-6.1,8.8-11.5c5-14.8-1.3-31.3-15.3-38.4C26.1,9.2,22.1,8.3,18.6,9.5
			L18.6,9.5z"/>
	</g>
	<g>
		<path class="st0" d="M126.5,81c-1.2-15.2-7.7-30.2-19.4-41.9c-4.2-4.2-8.9-7.7-13.9-10.4c-3.5,17.1,13.7,19.6,10.8,33.3
			C100.4,78.5,117.1,84.3,126.5,81z"/>
	</g>
	<g>
		<path class="st0" d="M92.4,92.8c-7.7,2.4-17.5,4.4-22.4,0.7L68.5,95c-10.7,10.7-10.7,28,0,38.7s28,10.7,38.7,0
			c4.3-4.3,7.9-9.1,10.8-14.1c-8.4-3-12.2-12.2-13.8-19.8C103,94.3,97.6,91.1,92.4,92.8L92.4,92.8z"/>
	</g>
	<g>
		<path class="st1" d="M68.5,95c-10.7,10.7-10.7,28,0,38.7c7.8,7.8,19.2,9.9,28.9,6.3C68.2,129.9,70,93.5,70,93.5L68.5,95z"/>
	</g>
	<g>
		<g>
			<g>
				<path class="st4" d="M72.6,116.8c-0.4,0-0.7-0.1-1-0.3c-1-0.6-1.3-1.8-0.7-2.8l1.4-2.3c0.6-1,1.8-1.3,2.8-0.7
					c1,0.6,1.3,1.8,0.7,2.8l-1.4,2.3C74,116.4,73.3,116.8,72.6,116.8L72.6,116.8z"/>
			</g>
			<g>
				<path class="st4" d="M96.7,131.2c-0.4,0-0.7-0.1-1-0.3c-1-0.6-1.3-1.8-0.7-2.8l1.4-2.3c0.6-1,1.8-1.3,2.8-0.7
					c1,0.6,1.3,1.8,0.7,2.8l-1.4,2.3C98.1,130.8,97.4,131.2,96.7,131.2L96.7,131.2z"/>
			</g>
		</g>
		<g>
			<g>
				<path class="st1" d="M31.9,24.5c-0.3,0-0.7-0.1-1-0.3l-5.7-3.4c-1-0.6-1.3-1.8-0.8-2.8c0.6-1,1.8-1.3,2.8-0.8l5.7,3.3
					c1,0.6,1.3,1.8,0.8,2.8C33.2,24.1,32.6,24.5,31.9,24.5z"/>
			</g>
			<g>
				<path class="st1" d="M35.1,50.3c-0.3,0-0.6-0.1-0.9-0.2c-1-0.5-1.4-1.7-1-2.7l2.8-5.9c0.5-1,1.7-1.4,2.7-1c1,0.5,1.4,1.7,1,2.7
					L37,49.1C36.6,49.8,35.9,50.3,35.1,50.3L35.1,50.3z"/>
			</g>
			<g>
				<path class="st1" d="M31.7,35.4c-0.8,0-1.7-0.6-1.9-1.4c-0.3-1.1,0.3-2.2,1.4-2.6l2.4-0.8c1.1-0.3,2.2,0.3,2.6,1.4
					s-0.3,2.2-1.4,2.6l-2.4,0.8C32.1,35.4,31.9,35.4,31.7,35.4z"/>
			</g>
		</g>
	</g>
</g>
</svg>
