<?xml version="1.0" encoding="utf-8"?>
<!-- Generator: Adobe Illustrator 25.1.0, SVG Export Plug-In . SVG Version: 6.00 Build 0)  -->
<svg version="1.1" id="Capa_1" xmlns="http://www.w3.org/2000/svg" xmlns:xlink="http://www.w3.org/1999/xlink" x="0px" y="0px"
	 viewBox="0 0 168 153" style="enable-background:new 0 0 168 153;" xml:space="preserve">
<style type="text/css">
	.st0{fill:#FF8870;}
	.st1{fill:#FF6C52;}
	.st2{fill:#F0F0F0;}
	.st3{fill:#E4E4E4;}
	.st4{fill:#595959;}
</style>
<g>
	<g>
		<path class="st0" d="M43.2,93c-5.7,2.5-11.7,4.3-17.9,5.3c-2.1,0.3-4.1,1-6.2,1.8c-4,1.7-5.9,6.3-4.2,10.3
			c2.1,4.9,7.9,7.8,14.6,9.5c8.4,2.1,17.1,1.4,24.6-1.9L43.2,93z"/>
	</g>
	<g>
		<path class="st1" d="M14.8,104.6c0.8-1.9,2.3-3.6,4.3-4.5c2-0.8,4.1-1.5,6.2-1.8c6.2-1,12.2-2.8,17.9-5.3l10.9,25
			c-5,2.1-10.4,3.2-16,3c-1.5-3.2-2.9-6.4-4-9.7c-1.4-4.1-5.3-6.9-9.6-6.7C20.6,104.8,17.3,104.7,14.8,104.6L14.8,104.6z"/>
	</g>
	<g>
		<path class="st0" d="M79.6,73.2c5.3-3.3,10.1-7.2,14.5-11.7c1.5-1.5,3.1-2.9,5-4.1c3.7-2.3,8.5-1.4,10.8,2.3
			c2.8,4.5,1.9,11-0.4,17.4c-3,8.2-8.5,14.9-15.4,19.3L79.6,73.2z"/>
	</g>
	<g>
		<path class="st1" d="M94.1,61.5c1.5-1.5,3.1-2.9,5-4.1c1.9-1.2,4.1-1.5,6.1-1c-1.2,2.3-3.4,5.9-6.5,10.3
			c-2.8,3.9-2.5,9.2,0.9,12.5l0.1,0.1l5.8,5.7c-3,4.6-6.9,8.4-11.4,11.3L79.7,73.1C84.9,69.9,89.8,66,94.1,61.5z"/>
	</g>
	<g>
		<path class="st2" d="M91.5,42.9C79.3,55.1,79.6,75,91.8,87.2l6.2,6.2c0,0-11.9,25.5-48,26C35.4,93.9,39,60.8,60.8,39.1
			c20-20,50.2-23.5,73.9-10.7l-5.2,9.7C117.6,31,101.8,32.6,91.5,42.9L91.5,42.9z"/>
	</g>
	<g>
		<path class="st3" d="M94.7,35.5C94.7,29.7,90,25,84.2,25c-0.6,0-1.3,0.1-1.9,0.2c17-6.6,36.2-5.5,52.4,3.3l-5.2,9.7
			c-11.5-6.9-26.6-5.7-37,3.7C93.9,40.1,94.7,37.9,94.7,35.5z"/>
	</g>
	<g>
		<path class="st0" d="M149.4,9.5c3.4,1.2,5.1,4.8,3.9,8.2c-0.6,1.8-1.5,3.5-2.5,5c-5.7,8.7-9.2,18.7-10.1,29.1
			c-0.2,1.8-0.5,3.6-1.2,5.4c-1.2,3.4-4.8,5.1-8.2,3.9c-4.2-1.5-7-6.1-8.8-11.5c-5-14.8,1.3-31.3,15.3-38.4
			C141.9,9.2,145.9,8.3,149.4,9.5L149.4,9.5z"/>
	</g>
	<g>
		<path class="st0" d="M41.5,81c1.2-15.2,7.7-30.2,19.4-41.9c4.2-4.2,8.9-7.7,13.9-10.4C78.3,45.8,61.1,48.3,64,62
			C67.6,78.5,50.9,84.3,41.5,81z"/>
	</g>
	<g>
		<path class="st0" d="M75.6,92.8c7.7,2.4,17.5,4.4,22.4,0.7l1.5,1.5c10.7,10.7,10.7,28,0,38.7s-28,10.7-38.7,0
			c-4.3-4.3-7.9-9.1-10.8-14.1c8.4-3,12.2-12.2,13.8-19.8C65,94.3,70.4,91.1,75.6,92.8L75.6,92.8z"/>
	</g>
	<g>
		<path class="st1" d="M99.5,95c10.7,10.7,10.7,28,0,38.7c-7.8,7.8-19.2,9.9-28.9,6.3C99.8,129.9,98,93.5,98,93.5L99.5,95z"/>
	</g>
	<g>
		<g>
			<g>
				<path class="st4" d="M95.4,116.8c0.4,0,0.7-0.1,1-0.3c1-0.6,1.3-1.8,0.7-2.8l-1.4-2.3c-0.6-1-1.8-1.3-2.8-0.7
					c-1,0.6-1.3,1.8-0.7,2.8l1.4,2.3C94,116.4,94.7,116.8,95.4,116.8L95.4,116.8z"/>
			</g>
			<g>
				<path class="st4" d="M71.3,131.2c0.4,0,0.7-0.1,1-0.3c1-0.6,1.3-1.8,0.7-2.8l-1.4-2.3c-0.6-1-1.8-1.3-2.8-0.7
					c-1,0.6-1.3,1.8-0.7,2.8l1.4,2.3C69.9,130.8,70.6,131.2,71.3,131.2L71.3,131.2z"/>
			</g>
		</g>
		<g>
			<g>
				<path class="st1" d="M136.1,24.5c0.3,0,0.7-0.1,1-0.3l5.7-3.4c1-0.6,1.3-1.8,0.8-2.8c-0.6-1-1.8-1.3-2.8-0.8l-5.7,3.3
					c-1,0.6-1.3,1.8-0.8,2.8C134.8,24.1,135.4,24.5,136.1,24.5z"/>
			</g>
			<g>
				<path class="st1" d="M132.9,50.3c0.3,0,0.6-0.1,0.9-0.2c1-0.5,1.4-1.7,1-2.7l-2.8-5.9c-0.5-1-1.7-1.4-2.7-1
					c-1,0.5-1.4,1.7-1,2.7l2.7,5.9C131.4,49.8,132.1,50.3,132.9,50.3L132.9,50.3z"/>
			</g>
			<g>
				<path class="st1" d="M136.3,35.4c0.8,0,1.7-0.6,1.9-1.4c0.3-1.1-0.3-2.2-1.4-2.6l-2.4-0.8c-1.1-0.3-2.2,0.3-2.6,1.4
					c-0.4,1.1,0.3,2.2,1.4,2.6l2.4,0.8C135.9,35.4,136.1,35.4,136.3,35.4z"/>
			</g>
		</g>
	</g>
</g>
</svg>
