<?xml version="1.0" standalone="no"?><svg xmlns="http://www.w3.org/2000/svg" viewBox="0 0 1440 320"><path fill="#87bfff" fill-opacity="1" d="M0,0L30,26.7C60,53,120,107,180,128C240,149,300,139,360,144C420,149,480,171,540,160C600,149,660,107,720,106.7C780,107,840,149,900,186.7C960,224,1020,256,1080,261.3C1140,267,1200,245,1260,224C1320,203,1380,181,1410,170.7L1440,160L1440,320L1410,320C1380,320,1320,320,1260,320C1200,320,1140,320,1080,320C1020,320,960,320,900,320C840,320,780,320,720,320C660,320,600,320,540,320C480,320,420,320,360,320C300,320,240,320,180,320C120,320,60,320,30,320L0,320Z"></path></svg>