<?xml version="1.0" encoding="utf-8"?>
<!-- Generator: Adobe Illustrator 25.1.0, SVG Export Plug-In . SVG Version: 6.00 Build 0)  -->
<svg version="1.1" id="Capa_1" xmlns="http://www.w3.org/2000/svg" xmlns:xlink="http://www.w3.org/1999/xlink" x="0px" y="0px"
	 viewBox="0 0 514.9 517.9" style="enable-background:new 0 0 514.9 517.9;" xml:space="preserve">
<style type="text/css">
	.st0{opacity:0.15;}
	.st1{fill:#F2C238;}
</style>
<g class="st0">
	<g>
		<path class="st1" d="M351.4,176.2c-53.6-53.6-140.4-53.6-194,0c-38.6,38.6-49.2,94.5-32.2,142.7l61.7-55.6c0,0-3.9-7.6-4.5-9.4
			c-6.8-17.4,0.1-41.9,20.5-62.4c22.3-22.3,58.6-24.1,75.5-7.6c0,0,0,0,0.1,0.1l0,0c16.5,16.9,14.6,53.2-7.6,75.5
			c-20.4,20.4-44.9,27.2-62.4,20.5c-0.2-0.1-9.5-4.5-9.5-4.5L137,344.2c5.6,9.3,12.3,18.1,20.3,26.1c10.8,10.8,23,19.3,35.9,25.7
			l61.2-55.1c-6.2-9.7-7.9-21.5-5.8-32c2.6-13.1,81.5-73.4,81.5-73.4l6,6l-65.3,65.3l6,6l65.3-65.3l6.6,6.6l-65.3,65.3l6,6
			l65.3-65.3l6.9,6.9l-65.3,65.3l6,6l65.3-65.3l4.7,4.7c0,0-60.2,78.9-73.4,81.5c-10.5,2.1-22.2,0.4-31.8-5.7
			c-0.2-0.1-0.4-0.1-0.4-0.1l-47.4,52.7c45.7,12.1,96.4,0.4,132.3-35.4C404.9,316.8,405,229.8,351.4,176.2z"/>
		<path class="st1" d="M226.9,195.9c1.8-1.1,3.5-2,3.6-1.9c0.7-0.4,0.9-1.2,0.7-2.1c-0.3-0.8-1.1-1.3-1.8-1.2c0,0-1.7,0.4-4.2,1
			c-2.1,0.6-5.4,1.6-8.8,3.5c-3,1.7-6.9,4-10.7,7.1c-2.1,1.6-3.7,3.3-5.3,5c-1.8,2.1-3.2,4-4.5,6.5c-3.5,7.4-7.2,14-7.2,24.5
			c0,3.4,0.5,6.3,0.9,8.4l0.1,0.7c0,0.4,0.2,0.9,0.3,1.3c0.5,1.6,1.1,2.5,1.1,2.6c0.4,0.7,1.2,0.9,1.8,0.7s1.1-0.9,1-1.7
			c0,0-0.1-1.2,0.1-2.9c0.1-1.2,0.4-2.5,0.6-4.2c0.1-1.1,0.4-2.5,0.7-3.8c1.3-6.6,5.4-13.4,9-21.1c0.8-1.6,2.1-3.5,3.3-5
			c1.3-1.8,2.8-3.3,4.2-4.6c3.1-3.3,6.1-5.9,8.6-7.8C223,198.5,225.2,196.8,226.9,195.9z"/>
		<path class="st1" d="M369.3,158.3c-63.4-63.4-166.7-63.4-230.1,0c-63.4,63.4-63.4,166.7,0,230.1s166.6,63.4,230-0.1
			S432.8,221.7,369.3,158.3z M147.9,379.8c-58.7-58.7-58.8-154.2,0-213c58.7-58.7,154.2-58.8,213,0c58.7,58.7,58.8,154.2,0,213
			C302,438.4,206.6,438.4,147.9,379.8z"/>
	</g>
</g>
</svg>
